<?xml version="1.0" encoding="utf-8" standalone="no"?>
<!DOCTYPE svg PUBLIC "-//W3C//DTD SVG 1.1//EN" "http://www.w3.org/Graphics/SVG/1.1/DTD/svg11.dtd">

<svg style="stroke-linejoin:round; stroke:black; stroke-width:0.5pt; text-anchor:middle; fill:none" xmlns="http://www.w3.org/2000/svg" height="297mm" width="210mm" version="1.1" xmlns:xlink="http://www.w3.org/1999/xlink" font-family="Helvetica, Arial, FreeSans, Sans, sans, sans-serif" viewBox="0 0 210 297">

<g>

<circle cy="30.0" cx="30.0" r="7.5" fill="black" />

<circle cy="60.0" cx="30.0" r="7.5" fill="black" />

<circle cy="90.0" cx="30.0" r="7.5" fill="black" />

<circle cy="120.0" cx="30.0" r="7.5" fill="black" />

<circle cy="150.0" cx="30.0" r="7.5" fill="black" />

<circle cy="180.0" cx="30.0" r="7.5" fill="black" />

<circle cy="210.0" cx="30.0" r="9.375" fill="black" />

<circle cy="30.0" cx="60.0" r="7.5" fill="black" />

<circle cy="60.0" cx="60.0" r="7.5" fill="black" />

<circle cy="90.0" cx="60.0" r="7.5" fill="black" />

<circle cy="120.0" cx="60.0" r="7.5" fill="black" />

<circle cy="150.0" cx="60.0" r="7.5" fill="black" />

<circle cy="180.0" cx="60.0" r="7.5" fill="black" />

<circle cy="210.0" cx="60.0" r="7.5" fill="black" />

<circle cy="30.0" cx="90.0" r="7.5" fill="black" />

<circle cy="60.0" cx="90.0" r="7.5" fill="black" />

<circle cy="90.0" cx="90.0" r="7.5" fill="black" />

<circle cy="120.0" cx="90.0" r="7.5" fill="black" />

<circle cy="150.0" cx="90.0" r="7.5" fill="black" />

<circle cy="180.0" cx="90.0" r="7.5" fill="black" />

<circle cy="210.0" cx="90.0" r="7.5" fill="black" />

<circle cy="30.0" cx="120.0" r="7.5" fill="black" />

<circle cy="60.0" cx="120.0" r="7.5" fill="black" />

<circle cy="90.0" cx="120.0" r="7.5" fill="black" />

<circle cy="120.0" cx="120.0" r="7.5" fill="black" />

<circle cy="150.0" cx="120.0" r="7.5" fill="black" />

<circle cy="180.0" cx="120.0" r="7.5" fill="black" />

<circle cy="210.0" cx="120.0" r="7.5" fill="black" />

<circle cy="30.0" cx="150.0" r="7.5" fill="black" />

<circle cy="60.0" cx="150.0" r="7.5" fill="black" />

<circle cy="90.0" cx="150.0" r="7.5" fill="black" />

<circle cy="120.0" cx="150.0" r="7.5" fill="black" />

<circle cy="150.0" cx="150.0" r="7.5" fill="black" />

<circle cy="180.0" cx="150.0" r="7.5" fill="black" />

<circle cy="210.0" cx="150.0" r="7.5" fill="black" />

</g>

</svg>

